<svg enable-background="new 0 0 202.166 84.066" height="84.066" viewBox="0 0 202.166 84.066" width="202.166" xmlns="http://www.w3.org/2000/svg"><g fill="#fff"><path d="m66.246 84.066v-17.205-64.709h-19.52l-46.726 62.711v19.203zm-21.211-54.554h.461v37.35h-28.281z"/><path d="m91.592 43.499c0-2.868.281-5.765.846-8.685.561-2.921 1.51-5.584 2.842-7.993 1.332-2.406 3.1-4.354 5.305-5.841 2.201-1.483 4.891-2.229 8.068-2.229 4.713 0 8.582 1.46 11.605 4.381 3.021 2.92 4.533 6.993 4.533 12.22 0 3.28-.744 6.201-2.229 8.761-1.486 2.562-3.33 4.868-5.533 6.917-2.205 2.051-4.637 3.919-7.301 5.61-2.666 1.69-5.176 3.357-7.531 4.995-4.611 3.178-8.992 6.302-13.143 9.376s-7.762 6.432-10.836 10.067c-.811.961-1.576 1.958-2.299 2.987h26.514c1.014-.959 2.051-1.889 3.145-2.757 3.482-2.767 7.07-5.353 10.76-7.762 3.689-2.406 7.352-4.842 10.99-7.301 1.988-1.345 3.852-2.782 5.609-4.295v-55.044c-2.744-1.909-5.793-3.444-9.145-4.601-4.458-1.536-9.146-2.305-14.063-2.305-6.455 0-12.17 1.103-17.139 3.305-4.971 2.205-9.094 5.279-12.373 9.223-3.279 3.945-5.74 8.557-7.377 13.833-1.641 5.279-2.359 10.99-2.152 17.139h20.904z"/><path d="m202.166 84.066v-17.205-64.709h-19.521l-46.727 62.711v19.203zm-21.213-54.554h.463v37.35h-28.283z"/></g></svg>