<?xml version="1.0" encoding="utf-8"?>
<!-- Generator: Adobe Illustrator 16.0.0, SVG Export Plug-In . SVG Version: 6.00 Build 0)  -->
<!DOCTYPE svg PUBLIC "-//W3C//DTD SVG 1.1//EN" "http://www.w3.org/Graphics/SVG/1.1/DTD/svg11.dtd">
<svg version="1.1" id="Layer_1" xmlns="http://www.w3.org/2000/svg" xmlns:xlink="http://www.w3.org/1999/xlink" x="0px" y="0px"
	 width="198.43px" height="94px" viewBox="0 0 198.43 94" enable-background="new 0 0 198.43 94" xml:space="preserve">
<path fill="#C41C07" d="M9.424,44.922c5.341,1.083,9.297,1.57,12.493,1.312c1.631-0.131,2.862-0.483,3.775-1.069
	c0.91-0.587,1.227-1.238,0.905-1.951c-0.259-0.575-0.914-1.053-2.002-1.426c-1.114-0.372-3.052-0.733-5.952-1.043
	c-4.091-0.419-7.604-0.929-10.285-1.592c-2.709-0.656-4.575-1.635-5.352-2.962c-1.001-1.681,0.115-3.278,2.77-4.757
	c2.665-1.477,6.326-2.466,11.079-2.969c3.269-0.342,6.857-0.343,10.892,0.046c1.358,1.583,2.509,3.234,3.477,4.927
	c-3.891-1.055-7.403-1.398-10.408-1.123c-1.495,0.137-2.698,0.437-3.61,0.895c-0.914,0.458-1.234,0.937-0.938,1.439
	c0.289,0.493,1.008,0.875,2.138,1.149c1.104,0.277,2.99,0.519,5.573,0.754c4.27,0.396,7.46,1.039,9.691,1.875
	c2.237,0.848,3.523,2.123,3.929,3.81c0.504,2.128-0.625,4.046-2.917,5.707c-2.315,1.668-5.151,2.589-9.083,2.854
	c-3.065,0.208-6.716-0.046-11.519-0.634C12.468,48.402,10.899,46.656,9.424,44.922"/>
<path fill="#C41C07" d="M35.25,27.044c3.576-0.316,7.06-0.613,10.466-0.896c8.146,7.155,7.199,15.121,6.28,23.318
	c-2.79,0.011-5.642,0.05-8.566,0.122C42.833,41.567,42.31,33.836,35.25,27.044"/>
<path fill="#C41C07" d="M51.955,25.633c8.037-0.657,15.677-1.275,23.114-1.946c1.984,1.726,3.428,3.512,4.392,5.304
	c-4.419,0.226-8.935,0.445-13.59,0.679c0.914,1.504,1.492,3.026,1.805,4.551c4.267-0.112,8.403-0.201,12.445-0.284
	c0.194,1.725,0.043,3.44-0.338,5.141c-3.869-0.022-7.828-0.029-11.911-0.006c-0.186,1.786-0.612,3.574-1.146,5.374
	c4.078,0.049,8.036,0.141,11.91,0.255c-0.797,1.773-1.703,3.543-2.591,5.334c-6.093-0.291-12.354-0.5-18.94-0.557
	C58.861,41.192,60.653,33.062,51.955,25.633"/>
<path fill="#C41C07" d="M79.62,23.268c3.296-0.311,6.559-0.635,9.803-0.978c5.695,3.498,9.058,7.323,10.676,11.106
	c1.766-3.879,2.074-8.071-0.063-12.308c3.228-0.391,6.45-0.805,9.682-1.245c10.046,11.65,1.895,22.56-5.22,31.933
	c-2.379-0.152-4.745-0.308-7.109-0.465c2.458-3.494,5.024-7.01,6.756-10.705c1.312-2.799,2.296-5.741,2.447-8.846
	c-0.207,0.01-0.416,0.019-0.624,0.028c-0.292,1.539-1.163,3.643-3.024,6.169c-2.14,2.906-4.854,5.639-7.668,8.286
	c0.591-2.745,0.896-5.499,0.471-8.28c-0.367-2.431-1.106-4.342-1.646-5.721c-0.222,0.008-0.443,0.015-0.667,0.022
	c0.634,2.609,0.288,5.357-0.839,8.183c-1.375,3.466-3.55,6.817-5.638,10.191c-2.379-0.146-4.77-0.285-7.182-0.414
	C84.606,41.563,89.84,32.404,79.62,23.268"/>
<path fill="#C41C07" d="M114.826,19.126c4.513-0.651,9.048-1.353,13.628-2.104c3.541-0.589,7.063-0.082,9.869,1.648
	c2.789,1.717,4.533,4.516,4.402,8.188c-0.066,1.911-0.684,3.834-1.782,5.733c-1.1,1.901-2.968,3.563-5.424,4.956
	c-2.462,1.392-5.134,2.092-7.921,2.178c-0.904,0.027-1.806,0.052-2.708,0.075c-2.265,4.47-5.542,8.632-8.679,12.661
	c-2.521-0.131-5.012-0.271-7.483-0.422C116.138,42.482,124.646,31.229,114.826,19.126 M127.268,25.066
	c0.634,2.685,0.6,5.326,0.086,7.888c0.608-0.04,1.217-0.083,1.825-0.126c1.35-0.095,2.515-0.537,3.448-1.346
	c0.928-0.808,1.484-1.902,1.508-3.277c0.017-1.304-0.41-2.253-1.145-2.825c-0.735-0.572-1.776-0.776-3.061-0.623
	C129.043,24.862,128.154,24.966,127.268,25.066"/>
<path fill="#C41C07" d="M143.192,14.481c4.729-0.849,9.514-1.734,14.361-2.638c3.282-0.616,6.38-0.144,8.802,1.429
	c2.417,1.57,3.703,4.149,3.459,7.65c-0.206,2.874-1.392,5.408-3.262,7.58c-1.875,2.172-4.446,3.978-7.539,5.389
	c3.104,0.174,4.346,2.364,2.956,6.467c-1.476,4.312-3.411,8.51-5.409,12.601c-3.32,0.107-6.546,0.176-9.69,0.207
	c2.03-3.369,4.059-6.837,5.764-10.423c0.852-1.821,1.164-3.157,1.032-3.965c-0.132-0.811-0.801-1.159-1.965-1.051
	c-0.263,0.023-0.521,0.048-0.781,0.071c-2.631,5.45-6.334,10.558-9.994,15.388c-2.78-0.01-5.499-0.045-8.168-0.104
	C141.39,42.072,150.749,28.883,143.192,14.481 M154.601,21.36c0.211,3.104-0.151,6.15-0.931,9.121
	c0.621-0.079,1.245-0.159,1.87-0.24c1.337-0.174,2.492-0.765,3.41-1.788c0.916-1.022,1.505-2.255,1.669-3.694
	c0.166-1.461-0.122-2.518-0.76-3.151c-0.638-0.633-1.629-0.84-2.92-0.628C156.159,21.109,155.38,21.235,154.601,21.36"/>
<path fill="#C41C07" d="M173.276,8.929c7.879-1.434,15.891-2.832,23.935-4.017c-0.027,2.993-0.218,5.987-0.554,9.02
	c-4.483,0.897-8.941,1.779-13.361,2.632c-0.198,2.83-0.638,5.647-1.286,8.456c4.083-0.769,8.22-1.595,12.412-2.474
	c-0.614,3.006-1.391,6.048-2.346,9.106c-4.362,0.826-8.626,1.573-12.799,2.246c-1.238,3.244-2.726,6.458-4.397,9.615
	c4.633-0.528,9.422-1.15,14.389-1.875c-1.4,3.215-3.005,6.413-4.773,9.553c-8.706,0.803-16.771,1.326-24.344,1.635
	C169.317,39.521,176.889,24.529,173.276,8.929"/>
<path fill="#C41C07" d="M18.434,53.779c3.421-0.277,6.74-0.506,9.969-0.688c3.332,2.853,6.239,5.862,9.134,9.116
	c-0.225-3.247,0.201-6.424,1.172-9.564c3.055-0.093,6.032-0.146,8.943-0.164c0.116,8.394,1.419,17.166,10.767,28.779
	c-1.838-0.312-3.667-0.617-5.491-0.916c-3.431-4.168-5.867-7.939-7.709-11.474c-1.395-2.681-2.371-5.257-2.98-7.79
	c-0.166-0.001-0.331-0.003-0.497-0.005c0.138,1.25,0.208,2.979,0.556,5.243c0.403,2.604,1.221,5.283,2.481,8.086
	c-2.894-2.977-5.419-5.703-7.879-8.26c-2.145-2.233-3.706-3.858-4.716-5.021c-0.18,0.003-0.359,0.007-0.541,0.011
	c1.61,2.188,3.227,4.599,5.073,7.29c2.268,3.301,4.882,6.812,8.203,10.664c-1.814-0.27-3.627-0.529-5.442-0.777
	C30.926,68.645,25.067,61.08,18.434,53.779"/>
<path fill="#C41C07" d="M58.849,52.572c2.5,0.057,4.96,0.137,7.389,0.234c-0.188,8.911,0.129,18.523,12.728,32.074
	c-2.138-0.383-4.259-0.763-6.365-1.138c-2.305-2.595-4.158-5.035-5.653-7.351c-1.571-0.225-3.136-0.44-4.693-0.651
	c0.924,2.178,2.183,4.45,3.829,6.845c-1.952-0.344-3.893-0.684-5.823-1.016C52.833,70.145,54.088,61.146,58.849,52.572
	 M61.028,59.986c-0.873,3.19-1.132,6.52-0.495,10.076c1.059,0.108,2.118,0.221,3.181,0.336C62.1,66.677,61.349,63.245,61.028,59.986
	"/>
<path fill="#C41C07" d="M76.472,53.333c3.655,0.224,7.269,0.478,10.873,0.748c2.45,0.185,4.06,0.921,4.832,2.235
	c0.788,1.317,0.486,3.093-0.5,5.377c-0.803,1.879-1.78,3.477-3.026,4.75c-1.248,1.274-2.771,2.225-4.692,2.816
	c2.458,0.77,3.774,2.776,5.245,6.383c1.604,3.818,4.27,7.948,8.325,12.513c-2.24-0.388-4.468-0.773-6.678-1.162
	c-3.313-3.875-5.597-7.431-7.075-10.745c-0.756-1.686-1.282-2.883-1.831-3.66c-0.541-0.775-1.204-1.209-2.041-1.314
	c-0.187-0.023-0.372-0.049-0.559-0.071c0.681,4.514,2.876,9.446,7.28,15.046c-1.999-0.354-3.983-0.707-5.954-1.061
	C70.167,71.92,72.104,62.305,76.472,53.333 M80.912,59.205c-0.806,2.029-1.394,4.122-1.655,6.301c0.456,0.049,0.913,0.1,1.371,0.148
	c0.979,0.107,1.766-0.139,2.412-0.735c0.646-0.599,1.103-1.392,1.406-2.367c0.312-0.989,0.364-1.739,0.082-2.271
	c-0.277-0.526-0.896-0.832-1.861-0.92C82.081,59.309,81.497,59.257,80.912,59.205"/>
<path fill="#C41C07" d="M127.316,88.657v-6.979v-26.25h-7.919l-18.955,25.44v7.789H127.316z M118.711,66.525h0.188v15.152h-11.473
	L118.711,66.525z"/>
<path fill="#C41C07" d="M137.598,72.201c0-1.163,0.113-2.34,0.344-3.523c0.228-1.185,0.611-2.265,1.151-3.242
	c0.541-0.977,1.259-1.767,2.152-2.369c0.893-0.603,1.983-0.903,3.272-0.903c1.912,0,3.481,0.592,4.709,1.776
	c1.227,1.186,1.839,2.836,1.839,4.957c0,1.33-0.304,2.517-0.903,3.554c-0.604,1.04-1.352,1.976-2.245,2.807
	c-0.896,0.832-1.881,1.591-2.962,2.275c-1.082,0.687-2.1,1.362-3.056,2.026c-1.87,1.289-3.647,2.557-5.332,3.803
	c-1.684,1.248-3.147,2.609-4.396,4.084c-0.329,0.392-0.639,0.796-0.934,1.213h10.757c0.41-0.389,0.832-0.768,1.274-1.118
	c1.413-1.122,2.868-2.171,4.365-3.147s2.982-1.965,4.458-2.963c0.807-0.545,1.562-1.129,2.276-1.742v-22.33
	c-1.113-0.773-2.352-1.396-3.71-1.866c-1.81-0.622-3.712-0.935-5.706-0.935c-2.619,0-4.938,0.446-6.953,1.34
	c-2.017,0.896-3.688,2.143-5.02,3.742c-1.33,1.6-2.328,3.471-2.992,5.611s-0.958,4.458-0.873,6.952L137.598,72.201L137.598,72.201z"
	/>
<path fill="#C41C07" d="M182.454,88.657v-6.979v-26.25h-7.919l-18.956,25.44v7.789H182.454z M173.849,66.525h0.188v15.152h-11.474
	L173.849,66.525z"/>
</svg>
